PathFileType	4	(X/Y/Z)	C:/Users/opensim2020/Desktop/walking_exp_matlab/subject02_walking09_straight_01.trc																																																																																																																												
DataRate	CameraRate	NumFrames	NumMarkers	Units	OrigDataRate	OrigDataStartFrame	OrigNumFrames																																																																																																																								
100	100	6	42	mm	100	526	293																																																																																																																								
Frame#	Time	LFHD			RFHD			LBHD			RBHD			C7			T10			CLAV			STRN			RBAK			LSHO			LUPA			LELB			LFRM			LWRA			LWRB			LFIN			RSHO			RUPA			RELB			RFRM			RWRA			RWRB			RFIN			LASI			RASI			LPSI			RPSI			LTHI			LKNE			LTIB			LANK			LHEE			LTOE			RTHI			RKNE			RTIB			RANK			RHEE			RTOE			*39			*40			*41		
		X1	Y1	Z1	X2	Y2	Z2	X3	Y3	Z3	X4	Y4	Z4	X5	Y5	Z5	X6	Y6	Z6	X7	Y7	Z7	X8	Y8	Z8	X9	Y9	Z9	X10	Y10	Z10	X11	Y11	Z11	X12	Y12	Z12	X13	Y13	Z13	X14	Y14	Z14	X15	Y15	Z15	X16	Y16	Z16	X17	Y17	Z17	X18	Y18	Z18	X19	Y19	Z19	X20	Y20	Z20	X21	Y21	Z21	X22	Y22	Z22	X23	Y23	Z23	X24	Y24	Z24	X25	Y25	Z25	X26	Y26	Z26	X27	Y27	Z27	X28	Y28	Z28	X29	Y29	Z29	X30	Y30	Z30	X31	Y31	Z31	X32	Y32	Z32	X33	Y33	Z33	X34	Y34	Z34	X35	Y35	Z35	X36	Y36	Z36	X37	Y37	Z37	X38	Y38	Z38	X39	Y39	Z39	X40	Y40	Z40	X41	Y41	Z41	X42	Y42	Z42
																																																																																																																															
1	0	-1298.7135	1713.2572	-1064.01343	-1318.76025	1685.46228	-920.31537	-1422.59631	1638.72815	-1095.521	-1458.09473	1607.93982	-959.48694	-1490.88171	1498.33008	-1027.98047	-1562.328	1229.2312	-1011.19165	-1355.85815	1422.38257	-1042.5238	-1316.97864	1246.97168	-1041.15161	-1560.38635	1328.8241	-962.54504	-1430.8905	1470.16516	-1210.02258	-1443.84094	1274.40747	-1301.01611	-1432.8479	1135.69006	-1329.60693	-1381.98987	1013.80621	-1352.01782	-1281.36633	922.57416	-1340.19226	-1330.25659	903.83746	-1358.75439	-1285.56848	855.66986	-1374.72839	-1411.34802	1455.07227	-844.12396	-1466.19312	1270.95203	-761.52551	-1471.87134	1125.51953	-741.49652	-1454.82336	1006.44147	-720.6073	-1415.64319	876.14539	-738.16016	-1463.84863	876.69263	-707.47498	-1431.03882	811.07007	-703.77606	-1388.71436	943.30615	-1161.75903	-1340.73706	946.3714	-910.61273	-1572.03381	1010.73749	-1045.86084	-1558.94971	1012.97943	-932.80029	-1531.04065	649.04926	-1184.00146	-1605.94043	460.97281	-1142.26086	-1715.25281	299.94501	-1122.49182	-1769.26807	82.12573	-1081.18872	-1797.22229	60.64157	-1022.18237	-1630.828	24.24655	-1133.01416	-1352.69189	654.46161	-815.03589	-1294.44104	456.62128	-863.0744	-1280.75208	270.37192	-856.46191	-1239.77051	81.47039	-889.46869	-1261.02502	26.52347	-946.78033	-1077.35852	46.78469	-889.1051	-1411.41895	1771.35681	-983.06891	2845.84595	1034.22412	-3357.35059	NaN	NaN	NaN
2	0.01	-1291.25537	1713.75623	-1062.47668	-1311.47131	1685.93518	-918.95343	-1414.72046	1638.46802	-1094.21826	-1450.2843	1607.61047	-958.26392	-1482.78442	1498.40393	-1026.55188	-1553.89954	1229.30554	-1009.97516	-1347.72607	1421.97632	-1041.03284	-1308.82935	1246.81531	-1039.71851	-1551.8783	1328.58228	-961.46881	-1422.00598	1470.20276	-1208.57422	-1435.63	1274.11365	-1298.5752	-1425.30469	1134.90723	-1325.88049	-1374.62476	1012.698	-1347.15649	-1274.22815	921.2771	-1333.66016	-1323.06567	902.68243	-1352.70203	-1278.15515	854.02802	-1367.63953	-1403.1239	1454.96606	-842.62665	-1459.12207	1271.24841	-760.38879	-1465.97009	1125.83948	-740.31537	-1449.92847	1006.64648	-719.22137	-1411.83569	875.8634	-736.5636	-1459.99426	877.00171	-706.11249	-1428.4906	811.37842	-702.14709	-1381.04297	943.10834	-1160.7533	-1332.66455	946.56403	-909.41138	-1563.92126	1010.67957	-1044.4519	-1550.73486	1013.25494	-931.35803	-1523.76624	649.04248	-1183.32251	-1599.38586	461.74823	-1142.70691	-1710.69458	301.81064	-1123.03577	-1768.19067	84.93484	-1082.2373	-1796.73267	64.50756	-1023.63062	-1630.70264	24.17163	-1133.20508	-1345.479	654.31714	-814.5755	-1289.44836	455.92603	-862.56555	-1278.03625	269.41257	-856.94727	-1237.42236	81.09558	-890.02277	-1259.90466	27.18761	-946.8844	-1075.46765	43.59224	-889.5578	-1404.48645	1771.35217	-981.88702	2845.15576	1034.08093	-3360.24438	NaN	NaN	NaN
3	0.02	-1283.87952	1714.67822	-1061.13831	-1303.95813	1686.94714	-917.36182	-1406.75195	1638.55823	-1092.84363	-1442.3092	1607.60559	-956.86578	-1474.32996	1498.47876	-1025.00842	-1545.45691	1229.86719	-1008.69775	-1338.88708	1422.42932	-1039.5426	-1301.68494	1246.9696	-1039.82654	-1543.36084	1329.0271	-960.26733	-1413.28931	1470.66309	-1207.17065	-1427.39233	1273.99805	-1296.13831	-1417.73474	1134.30261	-1322.15796	-1367.27563	1011.81696	-1342.28857	-1267.09314	919.81409	-1327.11023	-1313.94678	900.61768	-1347.49866	-1271.04773	852.79321	-1360.34924	-1394.78503	1454.95276	-841.00336	-1452.0354	1271.57629	-758.82202	-1459.69226	1126.29895	-739.05774	-1444.61743	1006.9895	-717.89099	-1407.32385	876.09045	-735.05389	-1455.88501	877.47412	-704.66956	-1424.23352	811.43665	-700.51544	-1372.88672	942.9129	-1159.40259	-1324.63892	946.94421	-908.15057	-1555.70166	1010.88702	-1042.93274	-1542.27979	1013.90173	-929.75574	-1516.03955	649.11359	-1182.66821	-1591.99146	462.29865	-1142.755	-1705.5802	303.93982	-1123.73108	-1766.89844	88.18298	-1083.50647	-1795.65466	68.31947	-1024.66357	-1630.64905	24.13079	-1133.38037	-1338.26538	654.96185	-813.93378	-1284.76025	456.35919	-861.78546	-1273.75171	269.2525	-857.62048	-1234.09705	81.41286	-890.02313	-1257.87915	28.18169	-946.53381	-1072.38501	41.82137	-888.50378	-1397.46814	1771.57214	-980.62286	2845.25269	1033.99097	-3360.31592	NaN	NaN	NaN
4	0.03	-1276.4585	1715.92603	-1059.70935	-1296.42468	1688.23621	-915.8277	-1398.72681	1639.00964	-1091.3175	-1434.2738	1608.03821	-955.33966	-1465.58118	1498.84436	-1023.36188	-1537.0542	1230.74048	-1007.32849	-1330.21094	1422.98572	-1037.71399	-1291.63464	1247.71619	-1036.42163	-1534.82214	1329.98071	-958.86847	-1404.2804	1471.11218	-1205.58154	-1419.17993	1274.21545	-1293.6814	-1410.24109	1133.96069	-1318.36682	-1360.05347	1011.12842	-1337.38611	-1260.32959	918.75323	-1320.65881	-1306.94727	899.75861	-1342.02795	-1263.86536	851.24176	-1353.55444	-1386.28137	1455.32336	-839.34833	-1443.71985	1272.20813	-757.43872	-1452.70117	1126.86792	-737.74103	-1439.13281	1007.64917	-716.33844	-1402.77747	876.3764	-733.47827	-1451.4729	878.1875	-703.20404	-1420.66003	812.12488	-698.78802	-1364.56213	942.8269	-1157.83813	-1316.62708	947.57837	-906.63763	-1547.29028	1011.38135	-1041.34814	-1533.67725	1015.08551	-927.90405	-1508.02808	649.41339	-1182.36987	-1583.84802	462.90274	-1142.59155	-1699.86963	306.44412	-1124.50122	-1765.255	91.95742	-1084.69543	-1794.50537	73.13822	-1026.02026	-1630.73914	24.10462	-1133.77783	-1331.01831	656.20654	-813.07361	-1278.52649	456.98068	-861.06305	-1268.10718	270.11801	-856.45709	-1230.84094	81.37901	-889.61755	-1256.12671	29.1326	-946.17212	-1070.3988	40.63456	-887.11902	-1390.32397	1771.9281	-979.13153	2845.29883	1034.11792	-3360.34619	NaN	NaN	NaN
5	0.04	-1268.77124	1717.20593	-1057.87231	-1288.90747	1689.52795	-914.12781	-1390.70837	1639.64746	-1089.71021	-1426.19531	1608.60059	-953.75824	-1456.96448	1499.81555	-1021.62158	-1528.61426	1231.65149	-1005.9726	-1321.5448	1423.89856	-1036.0885	-1282.90295	1248.37195	-1034.69177	-1525.87476	1330.59204	-957.12622	-1395.49915	1472.12817	-1204.00464	-1411.07483	1274.78638	-1291.30432	-1402.85474	1133.97253	-1314.65576	-1353.1355	1010.79163	-1332.57166	-1254.16675	918.49109	-1314.52856	-1303.9093	900.80731	-1334.6543	-1257.40967	850.25983	-1346.75195	-1377.5481	1455.9762	-837.4082	-1435.83423	1272.91663	-755.84302	-1445.95264	1127.82007	-736.37988	-1433.09204	1008.34851	-715.04266	-1398.23889	876.6723	-731.77618	-1446.63928	879.16138	-701.76575	-1416.16052	812.61969	-697.2937	-1356.02002	943.01947	-1156.13159	-1308.3302	948.56531	-905.02502	-1538.62341	1011.88806	-1039.84558	-1525.0094	1016.66345	-926.01898	-1499.55615	649.8761	-1181.80493	-1574.91833	463.45236	-1142.41895	-1693.65576	309.38058	-1125.20898	-1763.2677	96.10291	-1085.8313	-1792.68005	78.18041	-1027.14514	-1630.50354	24.14185	-1133.91736	-1323.02173	657.7403	-812.40924	-1271.82996	458.29196	-860.14734	-1261.54272	271.34692	-854.28345	-1228.60596	81.61524	-889.09973	-1255.3606	29.45189	-945.93018	-1069.42505	39.17273	-886.6283	-1383.14319	1772.9458	-977.78613	2845.16357	1034.06055	-3360.22168	NaN	NaN	NaN
6	0.05	-1261.22925	1718.69067	-1056.29102	-1281.27246	1690.98999	-912.50885	-1382.60461	1640.32837	-1088.08313	-1418.02026	1609.23718	-952.11145	-1448.00122	1500.89893	-1019.83966	-1520.11975	1232.72632	-1004.58252	-1312.81372	1424.85791	-1034.33936	-1275.521	1249.16846	-1034.8042	-1517.06335	1331.65747	-955.30579	-1386.41541	1473.23511	-1202.34644	-1402.73535	1275.32483	-1288.53125	-1395.44922	1134.36951	-1310.90222	-1346.41943	1010.77325	-1327.83472	-1247.94617	917.64691	-1308.13879	-1294.17896	898.86591	-1330.03821	-1251.50989	849.6875	-1340.29578	-1368.41113	1456.71655	-835.66528	-1427.58545	1273.93604	-753.90967	-1438.33496	1128.8313	-735.0304	-1426.72144	1009.38214	-713.51642	-1393.01221	877.32526	-730.2583	-1441.52441	880.33649	-700.14868	-1411.74707	813.51733	-695.66785	-1347.21118	943.48755	-1154.20068	-1299.97302	949.80206	-903.21863	-1529.89111	1012.72192	-1038.20593	-1516.71484	1018.84265	-924.09052	-1490.28796	650.38483	-1180.55786	-1565.5752	464.41525	-1142.56873	-1687.03613	312.68732	-1125.62634	-1760.90356	100.71955	-1086.90247	-1790.44885	83.78371	-1028.31604	-1630.37048	24.05021	-1134.15063	-1314.78333	659.41589	-811.70593	-1264.67224	460.06784	-859.12738	-1255.54248	272.57703	-852.55518	-1227.48938	81.79301	-888.81134	-1255.10364	28.95246	-945.41595	-1068.96802	38.19504	-887.59955	-1375.90625	1773.85999	-976.32166	2845.90039	1034.08252	-3357.35498	NaN	NaN	NaN
